<svg width="44" height="48" viewBox="0 0 44 48" fill="none" xmlns="http://www.w3.org/2000/svg">
<path fill-rule="evenodd" clip-rule="evenodd" d="M39.5 10C41.9853 10 44 7.76143 44 5C44 2.23857 41.9853 0 39.5 0C37.0147 0 35 2.23857 35 5C35 7.76143 37.0147 10 39.5 10ZM31 27C34.866 27 38 23.866 38 20C38 16.134 34.866 13 31 13C27.134 13 24 16.134 24 20C24 23.866 27.134 27 31 27ZM20.5 48C25.1944 48 29 43.9706 29 39C29 34.0294 25.1944 30 20.5 30C15.8056 30 12 34.0294 12 39C12 43.9706 15.8056 48 20.5 48ZM12 24.5C12 27.5376 9.31371 30 6 30C2.68629 30 0 27.5376 0 24.5C0 21.4624 2.68629 19 6 19C9.31371 19 12 21.4624 12 24.5Z" fill="white"/>
</svg>
